# xmcd CD database file
#
# Track frame offsets:
#	150
#	23285
#	44533
#	67715
#
# Disc length: 1184 seconds
#
# Revision: 1
# Processed by: cddbd v1.5.1PL0 Copyright (c) Steve Scherf et al.
# Submitted via: CDex 1.51
#
DISCID=22049e04
DTITLE=サクラ大戦 - 花咲く乙女
DYEAR=1900
DGENRE=JPop
TTITLE0=花咲く乙女
TTITLE1=さくら
TTITLE2=花咲く乙女 (Karaoke)
TTITLE3=さくら (Karaoke)
EXTD=
EXTT0=
EXTT1=
EXTT2=
EXTT3=
PLAYORDER=
